<?xml version="1.0" encoding="UTF-8"?>
<svg width="700pt" height="700pt" version="1.1" viewBox="0 0 700 700" xmlns="http://www.w3.org/2000/svg" xmlns:xlink="http://www.w3.org/1999/xlink">
 <defs>
  <symbol id="v" overflow="visible">
   <path d="m18.766-1.125c-0.96875 0.5-1.9805 0.875-3.0312 1.125-1.043 0.25781-2.1367 0.39062-3.2812 0.39062-3.3984 0-6.0898-0.94531-8.0781-2.8438-1.9922-1.9062-2.9844-4.4844-2.9844-7.7344 0-3.2578 0.99219-5.8359 2.9844-7.7344 1.9883-1.9062 4.6797-2.8594 8.0781-2.8594 1.1445 0 2.2383 0.13281 3.2812 0.39062 1.0508 0.25 2.0625 0.625 3.0312 1.125v4.2188c-0.98047-0.65625-1.9453-1.1406-2.8906-1.4531-0.94922-0.3125-1.9492-0.46875-3-0.46875-1.875 0-3.3516 0.60547-4.4219 1.8125-1.0742 1.1992-1.6094 2.8555-1.6094 4.9688 0 2.1055 0.53516 3.7617 1.6094 4.9688 1.0703 1.1992 2.5469 1.7969 4.4219 1.7969 1.0508 0 2.0508-0.14844 3-0.45312 0.94531-0.3125 1.9102-0.80078 2.8906-1.4688z"/>
  </symbol>
  <symbol id="e" overflow="visible">
   <path d="m13.734-11.141c-0.4375-0.19531-0.87109-0.34375-1.2969-0.4375-0.41797-0.10156-0.83984-0.15625-1.2656-0.15625-1.2617 0-2.2305 0.40625-2.9062 1.2188-0.67969 0.80469-1.0156 1.9531-1.0156 3.4531v7.0625h-4.8906v-15.312h4.8906v2.5156c0.625-1 1.3438-1.7266 2.1562-2.1875 0.82031-0.46875 1.8008-0.70312 2.9375-0.70312 0.16406 0 0.34375 0.011719 0.53125 0.03125 0.19531 0.011719 0.47656 0.039062 0.84375 0.078125z"/>
  </symbol>
  <symbol id="a" overflow="visible">
   <path d="m17.641-7.7031v1.4062h-11.453c0.125 1.1484 0.53906 2.0078 1.25 2.5781 0.70703 0.57422 1.7031 0.85938 2.9844 0.85938 1.0312 0 2.082-0.14844 3.1562-0.45312 1.082-0.3125 2.1914-0.77344 3.3281-1.3906v3.7656c-1.1562 0.4375-2.3125 0.76562-3.4688 0.98438-1.1562 0.22656-2.3125 0.34375-3.4688 0.34375-2.7734 0-4.9297-0.70312-6.4688-2.1094-1.5312-1.4062-2.2969-3.3789-2.2969-5.9219 0-2.5 0.75391-4.4609 2.2656-5.8906 1.5078-1.4375 3.582-2.1562 6.2188-2.1562 2.4062 0 4.332 0.73047 5.7812 2.1875 1.4453 1.4492 2.1719 3.3828 2.1719 5.7969zm-5.0312-1.625c0-0.92578-0.27344-1.6719-0.8125-2.2344-0.54297-0.57031-1.25-0.85938-2.125-0.85938-0.94922 0-1.7188 0.26562-2.3125 0.79688s-0.96484 1.2969-1.1094 2.2969z"/>
  </symbol>
  <symbol id="l" overflow="visible">
   <path d="m9.2188-6.8906c-1.0234 0-1.793 0.17188-2.3125 0.51562-0.51172 0.34375-0.76562 0.85547-0.76562 1.5312 0 0.625 0.20703 1.1172 0.625 1.4688 0.41406 0.34375 0.98828 0.51562 1.7188 0.51562 0.92578 0 1.7031-0.32812 2.3281-0.98438 0.63281-0.66406 0.95312-1.4922 0.95312-2.4844v-0.5625zm7.4688-1.8438v8.7344h-4.9219v-2.2656c-0.65625 0.92969-1.3984 1.6055-2.2188 2.0312-0.82422 0.41406-1.8242 0.625-3 0.625-1.5859 0-2.8711-0.45703-3.8594-1.375-0.99219-0.92578-1.4844-2.1289-1.4844-3.6094 0-1.7891 0.61328-3.1016 1.8438-3.9375 1.2383-0.84375 3.1797-1.2656 5.8281-1.2656h2.8906v-0.39062c0-0.76953-0.30859-1.332-0.92188-1.6875-0.61719-0.36328-1.5703-0.54688-2.8594-0.54688-1.0547 0-2.0312 0.10547-2.9375 0.3125-0.89844 0.21094-1.7305 0.52344-2.5 0.9375v-3.7344c1.0391-0.25 2.0859-0.44141 3.1406-0.57812 1.0625-0.13281 2.125-0.20312 3.1875-0.20312 2.7578 0 4.75 0.54688 5.9688 1.6406 1.2266 1.0859 1.8438 2.8555 1.8438 5.3125z"/>
  </symbol>
  <symbol id="b" overflow="visible">
   <path d="m7.7031-19.656v4.3438h5.0469v3.5h-5.0469v6.5c0 0.71094 0.14062 1.1875 0.42188 1.4375s0.83594 0.375 1.6719 0.375h2.5156v3.5h-4.1875c-1.9375 0-3.3125-0.39844-4.125-1.2031-0.80469-0.8125-1.2031-2.1797-1.2031-4.1094v-6.5h-2.4219v-3.5h2.4219v-4.3438z"/>
  </symbol>
  <symbol id="d" overflow="visible">
   <path d="m12.766-13.078v-8.2031h4.9219v21.281h-4.9219v-2.2188c-0.66797 0.90625-1.4062 1.5703-2.2188 1.9844s-1.7578 0.625-2.8281 0.625c-1.8867 0-3.4336-0.75-4.6406-2.25-1.2109-1.5-1.8125-3.4258-1.8125-5.7812 0-2.3633 0.60156-4.2969 1.8125-5.7969 1.207-1.5 2.7539-2.25 4.6406-2.25 1.0625 0 2 0.21484 2.8125 0.64062 0.82031 0.42969 1.5664 1.0859 2.2344 1.9688zm-3.2188 9.9219c1.0391 0 1.8359-0.37891 2.3906-1.1406 0.55078-0.76953 0.82812-1.8828 0.82812-3.3438 0-1.457-0.27734-2.5664-0.82812-3.3281-0.55469-0.76953-1.3516-1.1562-2.3906-1.1562-1.043 0-1.8398 0.38672-2.3906 1.1562-0.55469 0.76172-0.82812 1.8711-0.82812 3.3281 0 1.4609 0.27344 2.5742 0.82812 3.3438 0.55078 0.76172 1.3477 1.1406 2.3906 1.1406z"/>
  </symbol>
  <symbol id="k" overflow="visible">
   <path d="m10.5-3.1562c1.0508 0 1.8516-0.37891 2.4062-1.1406 0.55078-0.76953 0.82812-1.8828 0.82812-3.3438 0-1.457-0.27734-2.5664-0.82812-3.3281-0.55469-0.76953-1.3555-1.1562-2.4062-1.1562-1.0547 0-1.8594 0.38672-2.4219 1.1562-0.55469 0.77344-0.82812 1.8828-0.82812 3.3281 0 1.4492 0.27344 2.5586 0.82812 3.3281 0.5625 0.77344 1.3672 1.1562 2.4219 1.1562zm-3.25-9.9219c0.67578-0.88281 1.4219-1.5391 2.2344-1.9688 0.82031-0.42578 1.7656-0.64062 2.8281-0.64062 1.8945 0 3.4453 0.75 4.6562 2.25 1.207 1.5 1.8125 3.4336 1.8125 5.7969 0 2.3555-0.60547 4.2812-1.8125 5.7812-1.2109 1.5-2.7617 2.25-4.6562 2.25-1.0625 0-2.0078-0.21094-2.8281-0.625-0.8125-0.42578-1.5586-1.0859-2.2344-1.9844v2.2188h-4.8906v-21.281h4.8906z"/>
  </symbol>
  <symbol id="j" overflow="visible">
   <path d="m0.34375-15.312h4.8906l4.125 10.391 3.5-10.391h4.8906l-6.4375 16.766c-0.64844 1.6953-1.4023 2.8828-2.2656 3.5625-0.86719 0.6875-2 1.0312-3.4062 1.0312h-2.8438v-3.2188h1.5312c0.83203 0 1.4375-0.13672 1.8125-0.40625 0.38281-0.26172 0.67969-0.73047 0.89062-1.4062l0.14062-0.42188z"/>
  </symbol>
  <symbol id="i" overflow="visible">
   <path d="m2.5781-20.406h5.25v16.422h9.25v3.9844h-14.5z"/>
  </symbol>
  <symbol id="h" overflow="visible">
   <path d="m2.3594-15.312h4.8906v15.312h-4.8906zm0-5.9688h4.8906v4h-4.8906z"/>
  </symbol>
  <symbol id="g" overflow="visible">
   <path d="m17.75-9.3281v9.3281h-4.9219v-7.1406c0-1.3203-0.03125-2.2344-0.09375-2.7344s-0.16797-0.86719-0.3125-1.1094c-0.1875-0.3125-0.44922-0.55469-0.78125-0.73438-0.32422-0.17578-0.69531-0.26562-1.1094-0.26562-1.0234 0-1.8242 0.39844-2.4062 1.1875-0.58594 0.78125-0.875 1.8711-0.875 3.2656v7.5312h-4.8906v-15.312h4.8906v2.2344c0.73828-0.88281 1.5195-1.5391 2.3438-1.9688 0.83203-0.42578 1.75-0.64062 2.75-0.64062 1.7695 0 3.1133 0.54688 4.0312 1.6406 0.91406 1.0859 1.375 2.6562 1.375 4.7188z"/>
  </symbol>
  <symbol id="u" overflow="visible">
   <path d="m14.312-14.828v3.7188c-1.043-0.4375-2.0547-0.76562-3.0312-0.98438-0.98047-0.21875-1.9023-0.32812-2.7656-0.32812-0.92969 0-1.6211 0.11719-2.0781 0.34375-0.44922 0.23047-0.67188 0.58984-0.67188 1.0781 0 0.38672 0.17188 0.68359 0.51562 0.89062 0.34375 0.21094 0.95703 0.36719 1.8438 0.46875l0.85938 0.125c2.5078 0.32422 4.1953 0.85156 5.0625 1.5781 0.86328 0.73047 1.2969 1.8711 1.2969 3.4219 0 1.6367-0.60547 2.8672-1.8125 3.6875-1.1992 0.8125-2.9922 1.2188-5.375 1.2188-1.0234 0-2.0742-0.078125-3.1562-0.23438-1.0742-0.15625-2.1797-0.39453-3.3125-0.71875v-3.7188c0.96875 0.48047 1.9609 0.83984 2.9844 1.0781 1.0312 0.23047 2.0781 0.34375 3.1406 0.34375 0.95703 0 1.6758-0.12891 2.1562-0.39062 0.47656-0.26953 0.71875-0.66406 0.71875-1.1875 0-0.4375-0.16797-0.75781-0.5-0.96875-0.33594-0.21875-0.99609-0.38281-1.9844-0.5l-0.85938-0.10938c-2.1797-0.26953-3.7031-0.77344-4.5781-1.5156-0.875-0.73828-1.3125-1.8594-1.3125-3.3594 0-1.625 0.55078-2.8281 1.6562-3.6094 1.1133-0.78906 2.8203-1.1875 5.125-1.1875 0.89453 0 1.8359 0.074219 2.8281 0.21875 1 0.13672 2.082 0.35156 3.25 0.64062z"/>
  </symbol>
  <symbol id="t" overflow="visible">
   <path d="m16.781-19.766v4.3125c-1.125-0.5-2.2266-0.875-3.2969-1.125-1.0625-0.25781-2.0703-0.39062-3.0156-0.39062-1.25 0-2.1797 0.17969-2.7812 0.53125-0.60547 0.34375-0.90625 0.88281-0.90625 1.6094 0 0.54297 0.20312 0.96875 0.60938 1.2812 0.40625 0.30469 1.1406 0.5625 2.2031 0.78125l2.25 0.45312c2.2695 0.44922 3.8789 1.1406 4.8281 2.0781 0.95703 0.92969 1.4375 2.2461 1.4375 3.9531 0 2.25-0.66797 3.9297-2 5.0312-1.3359 1.0938-3.3711 1.6406-6.1094 1.6406-1.3047 0-2.6055-0.125-3.9062-0.375-1.3047-0.23828-2.6055-0.59766-3.9062-1.0781v-4.4531c1.3008 0.69922 2.5625 1.2266 3.7812 1.5781 1.2188 0.34375 2.3906 0.51562 3.5156 0.51562 1.1562 0 2.0352-0.1875 2.6406-0.5625 0.61328-0.38281 0.92188-0.9375 0.92188-1.6562 0-0.63281-0.21094-1.125-0.625-1.4688-0.41797-0.34375-1.2461-0.65625-2.4844-0.9375l-2.0312-0.4375c-2.043-0.4375-3.5391-1.1328-4.4844-2.0938-0.9375-0.95703-1.4062-2.25-1.4062-3.875 0-2.0312 0.65625-3.5938 1.9688-4.6875s3.1953-1.6406 5.6562-1.6406c1.125 0 2.2734 0.085938 3.4531 0.25 1.1875 0.16797 2.4141 0.42188 3.6875 0.76562z"/>
  </symbol>
  <symbol id="f" overflow="visible">
   <path d="m2.1875-5.9688v-9.3438h4.9219v1.5312c0 0.83594-0.007813 1.875-0.015625 3.125-0.011719 1.25-0.015625 2.0859-0.015625 2.5 0 1.2422 0.03125 2.1328 0.09375 2.6719 0.070313 0.54297 0.17969 0.93359 0.32812 1.1719 0.20703 0.32422 0.47266 0.57422 0.79688 0.75 0.32031 0.16797 0.69141 0.25 1.1094 0.25 1.0195 0 1.8203-0.39062 2.4062-1.1719 0.58203-0.78125 0.875-1.8672 0.875-3.2656v-7.5625h4.8906v15.312h-4.8906v-2.2188c-0.74219 0.89844-1.5234 1.5586-2.3438 1.9844-0.82422 0.41406-1.7344 0.625-2.7344 0.625-1.7617 0-3.1055-0.53906-4.0312-1.625-0.92969-1.082-1.3906-2.6602-1.3906-4.7344z"/>
  </symbol>
  <symbol id="c" overflow="visible">
   <path d="m9.6406-12.188c-1.0859 0-1.9141 0.39062-2.4844 1.1719-0.57422 0.78125-0.85938 1.9062-0.85938 3.375s0.28516 2.5938 0.85938 3.375c0.57031 0.77344 1.3984 1.1562 2.4844 1.1562 1.0625 0 1.875-0.38281 2.4375-1.1562 0.57031-0.78125 0.85938-1.9062 0.85938-3.375s-0.28906-2.5938-0.85938-3.375c-0.5625-0.78125-1.375-1.1719-2.4375-1.1719zm0-3.5c2.6328 0 4.6914 0.71484 6.1719 2.1406 1.4766 1.418 2.2188 3.3867 2.2188 5.9062 0 2.5117-0.74219 4.4805-2.2188 5.9062-1.4805 1.418-3.5391 2.125-6.1719 2.125-2.6484 0-4.7148-0.70703-6.2031-2.125-1.4922-1.4258-2.2344-3.3945-2.2344-5.9062 0-2.5195 0.74219-4.4883 2.2344-5.9062 1.4883-1.4258 3.5547-2.1406 6.2031-2.1406z"/>
  </symbol>
  <symbol id="s" overflow="visible">
   <path d="m12.422-21.281v3.2188h-2.7031c-0.6875 0-1.1719 0.125-1.4531 0.375-0.27344 0.25-0.40625 0.6875-0.40625 1.3125v1.0625h4.1875v3.5h-4.1875v11.812h-4.8906v-11.812h-2.4375v-3.5h2.4375v-1.0625c0-1.6641 0.46094-2.8984 1.3906-3.7031 0.92578-0.80078 2.3672-1.2031 4.3281-1.2031z"/>
  </symbol>
  <symbol id="r" overflow="visible">
   <path d="m16.547-12.766c0.61328-0.94531 1.3477-1.6719 2.2031-2.1719 0.85156-0.5 1.7891-0.75 2.8125-0.75 1.7578 0 3.0977 0.54688 4.0156 1.6406 0.92578 1.0859 1.3906 2.6562 1.3906 4.7188v9.3281h-4.9219v-7.9844-0.35938c0.007813-0.13281 0.015625-0.32031 0.015625-0.5625 0-1.082-0.16406-1.8633-0.48438-2.3438-0.3125-0.48828-0.82422-0.73438-1.5312-0.73438-0.92969 0-1.6484 0.38672-2.1562 1.1562-0.51172 0.76172-0.77344 1.8672-0.78125 3.3125v7.5156h-4.9219v-7.9844c0-1.6953-0.14844-2.7852-0.4375-3.2656-0.29297-0.48828-0.8125-0.73438-1.5625-0.73438-0.9375 0-1.6641 0.38672-2.1719 1.1562-0.51172 0.76172-0.76562 1.8594-0.76562 3.2969v7.5312h-4.9219v-15.312h4.9219v2.2344c0.60156-0.86328 1.2891-1.5156 2.0625-1.9531 0.78125-0.4375 1.6406-0.65625 2.5781-0.65625 1.0625 0 2 0.25781 2.8125 0.76562 0.8125 0.51172 1.4258 1.2305 1.8438 2.1562z"/>
  </symbol>
  <symbol id="q" overflow="visible">
   <path d="m17.75-9.3281v9.3281h-4.9219v-7.1094c0-1.3438-0.03125-2.2656-0.09375-2.7656s-0.16797-0.86719-0.3125-1.1094c-0.1875-0.3125-0.44922-0.55469-0.78125-0.73438-0.32422-0.17578-0.69531-0.26562-1.1094-0.26562-1.0234 0-1.8242 0.39844-2.4062 1.1875-0.58594 0.78125-0.875 1.8711-0.875 3.2656v7.5312h-4.8906v-21.281h4.8906v8.2031c0.73828-0.88281 1.5195-1.5391 2.3438-1.9688 0.83203-0.42578 1.75-0.64062 2.75-0.64062 1.7695 0 3.1133 0.54688 4.0312 1.6406 0.91406 1.0859 1.375 2.6562 1.375 4.7188z"/>
  </symbol>
  <symbol id="p" overflow="visible">
   <path d="m2.5781-20.406h5.875l7.4219 14v-14h4.9844v20.406h-5.875l-7.4219-14v14h-4.9844z"/>
  </symbol>
  <symbol id="o" overflow="visible">
   <path d="m2.5781-20.406h8.7344c2.5938 0 4.582 0.57812 5.9688 1.7344 1.3945 1.1484 2.0938 2.7891 2.0938 4.9219 0 2.1367-0.69922 3.7812-2.0938 4.9375-1.3867 1.1562-3.375 1.7344-5.9688 1.7344h-3.4844v7.0781h-5.25zm5.25 3.8125v5.7031h2.9219c1.0195 0 1.8047-0.25 2.3594-0.75 0.5625-0.5 0.84375-1.2031 0.84375-2.1094 0-0.91406-0.28125-1.6172-0.84375-2.1094-0.55469-0.48828-1.3398-0.73438-2.3594-0.73438z"/>
  </symbol>
  <symbol id="n" overflow="visible">
   <path d="m2.3594-15.312h4.8906v15.031c0 2.0508-0.49609 3.6172-1.4844 4.7031-0.98047 1.082-2.4062 1.625-4.2812 1.625h-2.4219v-3.2188h0.85938c0.92578 0 1.5625-0.21094 1.9062-0.625 0.35156-0.41797 0.53125-1.2461 0.53125-2.4844zm0-5.9688h4.8906v4h-4.8906z"/>
  </symbol>
  <symbol id="m" overflow="visible">
   <path d="m14.719-14.828v3.9844c-0.65625-0.45703-1.3242-0.79688-2-1.0156-0.66797-0.21875-1.3594-0.32812-2.0781-0.32812-1.3672 0-2.4336 0.40234-3.2031 1.2031-0.76172 0.79297-1.1406 1.9062-1.1406 3.3438 0 1.4297 0.37891 2.543 1.1406 3.3438 0.76953 0.79297 1.8359 1.1875 3.2031 1.1875 0.75781 0 1.4844-0.10938 2.1719-0.32812 0.6875-0.22656 1.3203-0.56641 1.9062-1.0156v4c-0.76172 0.28125-1.5391 0.48828-2.3281 0.625-0.78125 0.14453-1.5742 0.21875-2.375 0.21875-2.7617 0-4.9219-0.70703-6.4844-2.125-1.5547-1.4141-2.3281-3.3828-2.3281-5.9062 0-2.5312 0.77344-4.5039 2.3281-5.9219 1.5625-1.4141 3.7227-2.125 6.4844-2.125 0.80078 0 1.5938 0.074219 2.375 0.21875 0.78125 0.13672 1.5547 0.35156 2.3281 0.64062z"/>
  </symbol>
 </defs>
 <path transform="matrix(5.6 0 0 5.6 70 3.979e-14)" d="m16.5 67.667c0.11021-0.84333-0.11091-1.6657-0.13811-2.4791 0.1702 0.055106 0.43806 0.067661 0.60826 0.12416 0.066267-0.75126-0.9668-3.1459-0.64872-3.6537 0.9089-1.453 2.6228 0.62918 3.1613 1.3379 0.43806-0.32017 0.9647-0.60965 1.4802-0.81194 0.18834 0.39132 0.64802 0.54688 0.83705 0.79381 0.50084-0.63267 0.018834-1.4523 0.39272-1.981 0.23716-0.33622 1.5367-0.72893 1.9657-0.96819 0.66197-0.37109 1.234-0.90192 2.018-1.1872 0.67592-0.24623 0.89216-0.053711 1.8032-0.025111 0.17787-2.4058-2.2719-0.97517-3.1131-0.47573-1.2591 0.74916-2.177 1.2319-3.1557-0.30483 1.0693-0.33622 1.8478-1.8457 2.7999-1.7648 0.29994-0.35296 0.39969-0.76869 0.29506-1.2423-0.19182-0.020926-0.30622-0.12904-0.46596-0.18834-0.5099 1.234-2.0522 1.2912-3.0127 1.137-0.30204-1.4258-1.7201-1.2291-2.041-2.1003-0.44573-1.2123 1.6211-0.89495 1.695-2.3451-1.2898-1.1963-3.9788 0.399-4.7747-1.3198-1.04 1.5402-3.1208 0.16392-4.5159 0.14927 0.099051 0.14369 0.1981 0.6243 0.29018 0.77497-0.7373 0.14369-1.2702-0.092076-1.9329-0.35017-1.3107-0.50642-0.74358-0.31529-1.5472-1.4641-0.30971-0.44294-1.0638-0.91378-1.1712-1.4879-0.30483-1.6553 0.61593-0.40597 1.3337-0.49386 1.2549-0.15206 2.597-0.3118 3.833-0.54688 0.58733-0.11091 1.3958-0.512 2.1749-0.29576 0.63128 0.17508 0.78334 0.72266 1.5011 0.86217 1.3567-1.0282-0.39132-3.0943 2.124-3.674 0.27274 0.62291 0.69127 2.4302 1.0338 2.8202 0.74009 0.84194 1.4781 0.30971 2.5028-0.050223 0.72893-0.2553 2.885-0.18415 3.6663-0.60826 1.0393-0.56431 0.49596-1.499 0.80915-2.47-0.54618-0.26228-1.6741 0.98284-2.6367 0.95773-0.84612-0.023019-3.0343-0.28878-3.2708-1.0372 0.51409-0.83008 1.183-0.5127 1.9789-0.76032 0.80566-0.24972 1.1168-0.70173 1.7892-1.0031 0.93471-0.41992 3.3119 0.023717 2.8083-1.6748-0.92913-0.37109-1.6281 0.004185-2.3082 0.66197-1.054-0.75823 0.12626-1.6092-0.33133-2.5202-0.6522-1.3002-1.0261 0.65709-1.6727 1.153-0.1409-0.70801-0.5399-1.3972-1.2919-1.4648-0.43806 1.6643-2.3661 1.3463-2.733-0.15974-0.74219-0.069754-1.137 0.56431-1.7718 0.79102-0.88588-2.3919-0.41434-2.2893-1.8743-0.68987-0.59012 0.64593-1.7578 1.3128-2.966 1.732 0.023717 0.23716-0.066964 0.54199-0.050223 0.77986-1.5709 0.50293-4.5368 0.018833-4.1678-2.2838-1.5548 0.053711-1.6755-0.87332-2.5084-1.859 1.4621-2.2147 2.207 1.0658 3.5233 1.5409 3.4682 1.2479-0.67592-2.5363-0.66894-3.0399 0.034877-2.8167 3.3078 0.50712 3.886 0.83008 1.3553 0.75823 0.28878 0.89983 1.6748 0.007673 0.57687-0.37179 0.19322-1.1489 1.4258-0.86426 0.45201-1.7913-3.2771-0.54199-3.6237-2.4498 0.738-0.12277 1.3539-0.35017 2.1003-0.35784-0.073243-0.036273-0.3397-0.023717-0.42969-0.029297 0.37528-0.21624 0.3139-0.45201 0.9661-0.36203-0.55524-0.6257-2.576-2.2349-2.1561-3.2792 0.41434-1.0303 2.6862 1.2521 3.48 1.6588-0.44782-0.65011-1.9189-2.7832-0.60617-3.637 1.07-0.69685 3.0029 0.98703 3.4249 1.8527 0.56501 1.16-0.34668 2.6053 1.5039 2.4379 0.48828-0.043945 0.33831-0.95703 1.3672-0.77916 0.5957 0.10324 1.1021 1.0421 1.6371 1.333-0.050921 0.26995 0.10603 0.67313 0.055106 0.94587 1.01 0.20926 1.5792-0.39969 1.3567-1.3163-0.14509-0.5957-1.5967-1.2088-2.0452-1.5297-1.0463-0.74568-3.2582-1.8331-2.8209-3.4368 1.031-0.050921 4.4727 0.86077 4.1253-0.83008-0.78334-0.25879-1.5353-0.023717-2.3152-0.19601-0.57826-0.12695-0.97866-0.6543-1.4997-0.67801-0.53292-0.023716-0.50781 0.97377-1.2891 0.6522-0.60965-0.25112-0.80776-1.3958-0.67801-1.9489 1.7557-0.12905 3.6747 0.42201 5.4381 0.60407 1.3002 0.13532 1.4481-0.33482 2.0417 1.2068 0.29088 0.75684 0.57826 1.4802-0.113 2.1673 1.317 0.37528 2.7693 1.1579 3.434 2.4791 1.1879-1.2102 1.7013-0.42271 2.9939 0.3411-0.48479 0.851-1.6302 1.5409-2.131 2.1512 1.4641-0.25809 2.4023 0.77288 2.4602 2.1659-0.77497-0.15904-1.2137 0.20787-1.1733 1.0038-0.53223-0.1709-0.76381-0.44503-0.83915-1.1189-0.21484-0.015346-0.39481-0.029995-0.61105 0-0.092773 1.0059 0.65569 1.7467 0.44992 2.7867-1.0352 0.1423-0.92634 1.0442-0.30901 1.529 0.69476 0.54688 1.7711-0.79032 1.8408 0.99191 0.036273 0.93332-3.2722 4.2522-0.032087 3.5247 0.059292 1.0372 0.73033 1.6832 1.377 2.4247-1.3637-1.266 0.15904-1.8569 0.68011-2.7748 0.68778-1.2123 0.082311-2.5558 0.66825-3.7919 0.57408 0.89007 1.8659 1.5102 2.2628 0.16671 0.14509 0.57199 0.21415 1.1628 0.2288 1.7578 1.4488 0.34598 1.2019-1.28 2.2789-1.6699 0.025809 0.039062 0.016044-0.46875 0.004185-0.44434-0.85031-0.36691-0.48131-4.0011-0.63267-5.0279-0.37877-2.567-0.057896-4.2327 2.629-4.811 0.19601 1.3037 2.2307 1.8122 0.75474 3.111 0.63616 0.26297 0.75823 1.762 1.1412 2.4923 0.2281 0.43318 0.59291 0.54478 0.79869 1.0763 0.1988 0.50921 0.10812 1.4 0.18206 1.9622 0.80078-0.60198 1.8143-0.59222 2.4533-1.3658 0.40109-0.48689 0.29715-1.3783 0.80008-1.9657-1.0372-0.8238-0.41504-2.2321-0.24205-3.3043 0.88867-0.013951 2.4449-1.5151 3.2959-1.9971-0.006976 0-0.27972-0.020229-0.4541-0.037668 1.0972 0.025809 2.154-0.20298 2.8167 0.84194-0.78125 0.5957-0.6522 1.799 0.45898 1.5618-0.059989 0.46108 0.16881 0.65918 0.046038 1.0631 1.1398 0.48968 0.20717 1.0198 0.47503 1.875 0.21903 0.69894 0.73591 1.1021 0.96191 1.7048 0.53711 1.4411-1.4907 4.504 0.17927 4.4329 0.46317-1.5039 1.6797-3.3608 1.3253-4.9337-0.1988-0.88797-1.213-1.6922-1.2912-2.7037-0.066964-0.87472 0.76311-1.5883 0.34598-2.4707 1.0442-0.062082 1.4167-0.89914 2.1498-1.0289 0.71498-0.12626 1.0679 0.46805 1.882 0.22879 0.12416 0.91867 0.062779 1.536 0.75126 2.2712 0.7952 0.84891 1.204 0.29925 2.0278 0.77218 0.76311-0.37528 1.2228-1.3839 1.0261-2.0682 1.5367-0.71917 1.2758-1.6888 3.2903-1.3449-0.13672 0.41922-0.052316 1.0212-0.29506 1.4488 1.1579 0.16322 2.2028-0.6808 3.275-0.32087 0.91169-1.4069 0.27832-1.4118 0.20368-2.8202-0.078823-1.4969 0.64872-1.5367 1.1579-2.8209 0.56222 0.21624 0.95982 0.73312 1.2109 1.3107 0.75893-1.1642 1.6211-1.0903 2.802-0.32017 0.88518 0.57826 0.48898 0.12835 1.0003 1.167 0.30483 0.61802-0.18973 0.87681 0.52316 1.3253-0.32924 0.20299-0.70103 0.77009-1.0428 0.99888 0.63198 0.44922 1.52 1.1782 2.3528 1.0128 1.0763-0.21275 0.92285-1.0903 1.5179-1.6281 0.3697-0.33482 0.97377-0.54967 1.3553-0.8803 0.41225-0.35575 0.31529-0.84473 0.79032-1.123 1.0958-0.64174 2.1617 0.26716 3.2959 0.11091-0.50014 0.29506-1.5932 0.57478-1.9371 1.0498-0.19322 0.26716 0.011858 1.0407-0.18066 1.296-0.52874 0.70173-1.2207 0.78683-1.8122 1.2319-0.47084 2.4379 3.0399 1.4021 4.119 0.9933 0.04813 1.257 0.26786 2.9729-0.46108 3.9453-0.68987 0.92076-0.98493-0.15486-1.3923 1.3288-0.21624 0.78892 0.22321 1.409-0.2832 2.1408 0.98284 0.020926 1.8401-1.4739 2.9869-0.94866 1.7292 0.79102 0.075335 2.071-0.482 2.9422 1.8283 0.045341 4.126-1.2179 5.6159 0.73312 1.6462 2.1547-2.1917 2.5872-3.0957 4.1427-0.27692 0.47573-0.12905 0.9947-0.40388 1.5123-0.18276 0.34319-0.80008 0.18904-0.97517 0.63825-0.56501 1.4488 0.5678 1.5799 1.0121 2.2921 0.59012 0.94587 1.0721 2.0347 0.49107 3.1829-0.4841 0.95773-1.4927 0.98075-2.1282 1.7801 0.092774-0.9668-0.66197-2.975-1.9957-2.387-1.4809 0.65081-0.069057 2.417-0.10393 3.3147-1.6853 0.67383 0.060686 2.2628-0.13532 3.3259-0.43108 2.3458-2.3633 1.2598-3.3322 0.35714-0.15904 0.032785-0.2853 0.092076-0.44573 0.12626 0.18694-0.47433 0.04534-1.582-0.68429-1.6622-1.2542-0.13881-0.59919 1.1768-0.71568 1.7243-0.34598 1.6127-1.377 1.4-3.1201 1.8241-2.2538 0.54827-3.3147 1.6818-5.1193 3.298-1.1049 0.99121-1.9378 2.004-3.0392 2.9953-1.356 1.22-1.6127 1.4488-2.1812-0.625-0.41016 0.76381-0.8517 0.25321-1.5451 0.63267-0.87472 0.47921-0.97796 0.80218-1.7557 1.6839-0.7952 0.90123-1.7683 0.92494-2.5237 1.7571-0.2839-0.34389-0.53432-0.88309-0.60407-1.287 0.29088-0.23716 0.21066-0.46596 0.41713-0.79869-0.55385 0.094168-1.0658 0.19601-1.6239 0.32506-0.15416 0.89704 0.26018 1.702-0.025809 2.357-0.26228 0.60128-1.52 1.6302-2.1659 1.8373-2.1268 0.68499-2.0619-1.9859-3.8079-1.5227-0.35714 1.7801 1.1593 2.2963-0.85868 3.0141-1.2891 0.45829-1.8129-0.19322-2.9911-0.37388-2.6353-0.40318-3.9739 0.84403-5.9619-1.1712-0.69824-0.70731-0.90402-1.2723-1.8799-1.492-1.2528-0.28181-1.626 0.70871-2.666 0.66616-0.72405-0.030692-2.4951-1.25-3.0413-1.8331-1.0212-1.0889-0.40667-0.96889-0.65081-2.4742-1.0163 0.025112-1.8318 0.91169-2.8188 1.1691-0.29018-0.57617-0.25809-1.3539 0.16113-1.8241-0.81194-0.39969-1.3149 0.47433-1.8087 1.1133-2.0103-1.7683-3.4152 0.75195-5.8503 0.69196-0.27692-0.006976-1.2228 0.076032-1.4907-0.046038-0.39481-0.17997-0.83287-1.1189-1.1217-1.1782-0.79799-0.16323-0.82729 0.51479-1.5409 0.72824-0.5678 0.1702-1.1363-0.37807-1.6713-0.011858" fill="none" stroke="#000" stroke-dasharray="1,2" stroke-linecap="round" stroke-linejoin="round" stroke-miterlimit="10" stroke-width=".75"/>
 <path transform="matrix(5.6 0 0 5.6 70 3.979e-14)" d="m36.667 75.833c-0.41085-0.55734-0.38993-1.2291-0.19182-1.8087-1.9873-0.46805-2.5119 2.1443-1.1077 3.1208 0.55315-0.30134 1.1321-1.3002 1.1342-1.3121" fill="none" stroke="#000" stroke-dasharray="1,2" stroke-linecap="round" stroke-linejoin="round" stroke-miterlimit="10" stroke-width=".75"/>
 <g>
  <use x="70" y="644" xlink:href="#v"/>
  <use x="90.550781" y="644" xlink:href="#e"/>
  <use x="104.359375" y="644" xlink:href="#a"/>
  <use x="123.347656" y="644" xlink:href="#l"/>
  <use x="142.242188" y="644" xlink:href="#b"/>
  <use x="155.628906" y="644" xlink:href="#a"/>
  <use x="174.617188" y="644" xlink:href="#d"/>
  <use x="204.410156" y="644" xlink:href="#k"/>
  <use x="224.453125" y="644" xlink:href="#j"/>
  <use x="252.453125" y="644" xlink:href="#i"/>
  <use x="270.292969" y="644" xlink:href="#h"/>
  <use x="279.890625" y="644" xlink:href="#g"/>
  <use x="299.824219" y="644" xlink:href="#u"/>
  <use x="316.492188" y="644" xlink:href="#a"/>
  <use x="335.480469" y="644" xlink:href="#a"/>
  <use x="354.46875" y="644" xlink:href="#d"/>
  <use x="384.261719" y="644" xlink:href="#t"/>
  <use x="404.429688" y="644" xlink:href="#b"/>
  <use x="417.8125" y="644" xlink:href="#f"/>
  <use x="437.746094" y="644" xlink:href="#d"/>
  <use x="457.789062" y="644" xlink:href="#h"/>
  <use x="467.386719" y="644" xlink:href="#c"/>
  <use x="70" y="672" xlink:href="#s"/>
  <use x="82.183594" y="672" xlink:href="#e"/>
  <use x="95.992188" y="672" xlink:href="#c"/>
  <use x="115.226562" y="672" xlink:href="#r"/>
  <use x="154.152344" y="672" xlink:href="#b"/>
  <use x="167.535156" y="672" xlink:href="#q"/>
  <use x="187.46875" y="672" xlink:href="#a"/>
  <use x="216.207031" y="672" xlink:href="#p"/>
  <use x="239.640625" y="672" xlink:href="#c"/>
  <use x="258.878906" y="672" xlink:href="#f"/>
  <use x="278.8125" y="672" xlink:href="#g"/>
  <use x="308.492188" y="672" xlink:href="#o"/>
  <use x="329.015625" y="672" xlink:href="#e"/>
  <use x="342.820312" y="672" xlink:href="#c"/>
  <use x="362.058594" y="672" xlink:href="#n"/>
  <use x="371.65625" y="672" xlink:href="#a"/>
  <use x="390.648438" y="672" xlink:href="#m"/>
  <use x="407.242188" y="672" xlink:href="#b"/>
 </g>
</svg>
